<svg xmlns="http://www.w3.org/2000/svg" viewBox="0 0 720 300" font-family="Segoe UI, Helvetica, Arial, sans-serif"><rect width="720" height="300" fill="#ffffff"/>
<text x="24" y="28" font-size="16" font-weight="700" fill="#1f2937">Dispatch volume by category</text>
<path d="M170.0,70.0 A95,95 0 1 1 158.1,259.2 L163.1,219.6 A55,55 0 1 0 170.0,110.0 Z" fill="#2563eb"/>
<path d="M158.1,259.2 A95,95 0 0 1 75.2,159.0 L115.1,161.5 A55,55 0 0 0 163.1,219.6 Z" fill="#0891b2"/>
<path d="M75.2,159.0 A95,95 0 0 1 114.2,88.1 L137.7,120.5 A55,55 0 0 0 115.1,161.5 Z" fill="#16a34a"/>
<path d="M114.2,88.1 A95,95 0 0 1 170.0,70.0 L170.0,110.0 A55,55 0 0 0 137.7,120.5 Z" fill="#f59e0b"/>
<text x="170" y="163" font-size="20" font-weight="700" text-anchor="middle" fill="#1f2937">22.6k</text>
<text x="170" y="181" font-size="10" text-anchor="middle" fill="#6b7280">dispatches</text>
<rect x="320" y="70" width="14" height="14" rx="3" fill="#2563eb"/>
<text x="342" y="82" font-size="12" fill="#1f2937">Standard</text>
<text x="690" y="82" font-size="12" text-anchor="end" fill="#6b7280">11,773 (52%)</text>
<rect x="320" y="104" width="14" height="14" rx="3" fill="#0891b2"/>
<text x="342" y="116" font-size="12" fill="#1f2937">Express</text>
<text x="690" y="116" font-size="12" text-anchor="end" fill="#6b7280">5,433 (24%)</text>
<rect x="320" y="138" width="14" height="14" rx="3" fill="#16a34a"/>
<text x="342" y="150" font-size="12" fill="#1f2937">International</text>
<text x="690" y="150" font-size="12" text-anchor="end" fill="#6b7280">3,169 (14%)</text>
<rect x="320" y="172" width="14" height="14" rx="3" fill="#f59e0b"/>
<text x="342" y="184" font-size="12" fill="#1f2937">Returns</text>
<text x="690" y="184" font-size="12" text-anchor="end" fill="#6b7280">2,264 (10%)</text>
</svg>
