<svg xmlns="http://www.w3.org/2000/svg" viewBox="0 0 720 300" font-family="Segoe UI, Helvetica, Arial, sans-serif"><rect width="720" height="300" fill="#ffffff"/>
<text x="48" y="28" font-size="16" font-weight="700" fill="#1f2937">Daily dispatches - May 2026</text>
<line x1="48" y1="48" x2="700" y2="48" stroke="#e5e7eb"/>
<line x1="48" y1="101" x2="700" y2="101" stroke="#e5e7eb"/>
<line x1="48" y1="154" x2="700" y2="154" stroke="#e5e7eb"/>
<line x1="48" y1="207" x2="700" y2="207" stroke="#e5e7eb"/>
<line x1="48" y1="260" x2="700" y2="260" stroke="#e5e7eb"/>
<polygon points="48,260 48.0,102.3 69.7,193.9 91.5,200.5 113.2,88.8 134.9,95.1 156.7,98.4 178.4,93.1 200.1,102.8 221.9,205.3 243.6,205.5 265.3,117.4 287.1,94.7 308.8,89.0 330.5,71.6 352.3,88.3 374.0,194.6 395.7,191.9 417.5,93.8 439.2,121.9 460.9,76.1 482.7,98.6 504.4,87.3 526.1,192.2 547.9,174.7 569.6,70.7 591.3,81.2 613.1,104.7 634.8,72.4 656.5,99.5 678.3,179.5 700.0,193.0 700,260" fill="#2563eb" opacity="0.08"/>
<polyline points="48.0,102.3 69.7,193.9 91.5,200.5 113.2,88.8 134.9,95.1 156.7,98.4 178.4,93.1 200.1,102.8 221.9,205.3 243.6,205.5 265.3,117.4 287.1,94.7 308.8,89.0 330.5,71.6 352.3,88.3 374.0,194.6 395.7,191.9 417.5,93.8 439.2,121.9 460.9,76.1 482.7,98.6 504.4,87.3 526.1,192.2 547.9,174.7 569.6,70.7 591.3,81.2 613.1,104.7 634.8,72.4 656.5,99.5 678.3,179.5 700.0,193.0" fill="none" stroke="#2563eb" stroke-width="2.4"/>
<text x="48.0" y="286" font-size="10" text-anchor="middle" fill="#6b7280">1</text>
<text x="134.9" y="286" font-size="10" text-anchor="middle" fill="#6b7280">5</text>
<text x="243.6" y="286" font-size="10" text-anchor="middle" fill="#6b7280">10</text>
<text x="352.3" y="286" font-size="10" text-anchor="middle" fill="#6b7280">15</text>
<text x="460.9" y="286" font-size="10" text-anchor="middle" fill="#6b7280">20</text>
<text x="569.6" y="286" font-size="10" text-anchor="middle" fill="#6b7280">25</text>
<text x="678.3" y="286" font-size="10" text-anchor="middle" fill="#6b7280">30</text>
<text x="48" y="286" font-size="10" fill="#6b7280">day of month</text>
</svg>
