<svg xmlns="http://www.w3.org/2000/svg" viewBox="0 0 720 300" font-family="Segoe UI, Helvetica, Arial, sans-serif"><rect width="720" height="300" fill="#ffffff"/>
<text x="52" y="28" font-size="16" font-weight="700" fill="#1f2937">Back-office throughput by week</text>
<line x1="52" y1="56" x2="700" y2="56" stroke="#e5e7eb"/>
<line x1="52" y1="107" x2="700" y2="107" stroke="#e5e7eb"/>
<line x1="52" y1="158" x2="700" y2="158" stroke="#e5e7eb"/>
<line x1="52" y1="209" x2="700" y2="209" stroke="#e5e7eb"/>
<line x1="52" y1="260" x2="700" y2="260" stroke="#e5e7eb"/>
<rect x="73.3" y="85.1" width="41.5" height="174.9" rx="3" fill="#16a34a"/>
<rect x="118.8" y="242.1" width="41.5" height="17.9" rx="3" fill="#f59e0b"/>
<text x="116.8" y="286" font-size="11" text-anchor="middle" fill="#6b7280">W1</text>
<rect x="202.9" y="127.2" width="41.5" height="132.8" rx="3" fill="#16a34a"/>
<rect x="248.4" y="252.5" width="41.5" height="7.5" rx="3" fill="#f59e0b"/>
<text x="246.4" y="286" font-size="11" text-anchor="middle" fill="#6b7280">W2</text>
<rect x="332.5" y="82.6" width="41.5" height="177.4" rx="3" fill="#16a34a"/>
<rect x="378.0" y="243.9" width="41.5" height="16.1" rx="3" fill="#f59e0b"/>
<text x="376.0" y="286" font-size="11" text-anchor="middle" fill="#6b7280">W3</text>
<rect x="462.1" y="124.3" width="41.5" height="135.7" rx="3" fill="#16a34a"/>
<rect x="507.6" y="234.7" width="41.5" height="25.3" rx="3" fill="#f59e0b"/>
<text x="505.6" y="286" font-size="11" text-anchor="middle" fill="#6b7280">W4</text>
<rect x="591.7" y="103.0" width="41.5" height="157.0" rx="3" fill="#16a34a"/>
<rect x="637.2" y="239.1" width="41.5" height="20.9" rx="3" fill="#f59e0b"/>
<text x="635.2" y="286" font-size="11" text-anchor="middle" fill="#6b7280">W5</text>
<rect x="500" y="40" width="12" height="12" rx="2" fill="#16a34a"/>
<text x="518" y="50" font-size="11" fill="#1f2937">Processed</text>
<rect x="600" y="40" width="12" height="12" rx="2" fill="#f59e0b"/>
<text x="618" y="50" font-size="11" fill="#1f2937">Backlog</text>
</svg>
